<svg width="217" height="21" viewBox="0 0 217 21" fill="none" xmlns="http://www.w3.org/2000/svg">
<path d="M35.4543 2H2.17067C0.971843 2 0 2.7835 0 3.75V7.25C0 8.2165 0.971843 9 2.17067 9H35.4543C36.6532 9 37.625 8.2165 37.625 7.25V3.75C37.625 2.7835 36.6532 2 35.4543 2Z" fill="#60A5FA"/>
<path opacity="0.25" d="M42.2268 14H8.94318C7.74435 14 6.77251 14.7835 6.77251 15.75V19.25C6.77251 20.2165 7.74435 21 8.94318 21H42.2268C43.4257 21 44.3975 20.2165 44.3975 19.25V15.75C44.3975 14.7835 43.4257 14 42.2268 14Z" fill="#60A5FA"/>
<path d="M55.1874 19V1.5H61.5249C62.7665 1.5 63.8624 1.71667 64.8124 2.15C65.7707 2.575 66.5207 3.19167 67.0624 4C67.604 4.8 67.8749 5.7625 67.8749 6.8875C67.8749 8.04583 67.6249 9.025 67.1249 9.825C66.6249 10.6167 65.8957 11.2208 64.9374 11.6375C63.9874 12.0458 62.829 12.25 61.4624 12.25H57.9874V19H55.1874ZM57.9874 9.85H61.4999C62.6332 9.85 63.5124 9.6125 64.1374 9.1375C64.7624 8.65417 65.0749 7.925 65.0749 6.95C65.0749 5.98333 64.754 5.24167 64.1124 4.725C63.4707 4.20833 62.6082 3.95 61.5249 3.95H57.9874V9.85ZM79.1665 19.375C77.8748 19.375 76.7206 19.0792 75.704 18.4875C74.6956 17.8875 73.904 17.0917 73.329 16.1C72.754 15.1 72.4665 14.0042 72.4665 12.8125C72.4665 11.9292 72.629 11.0958 72.954 10.3125C73.2873 9.52083 73.754 8.82083 74.354 8.2125C74.9623 7.60417 75.6748 7.125 76.4915 6.775C77.3081 6.425 78.204 6.25 79.179 6.25C80.4706 6.25 81.6206 6.55 82.629 7.15C83.6456 7.74167 84.4415 8.5375 85.0165 9.5375C85.5915 10.5292 85.879 11.6208 85.879 12.8125C85.879 13.6875 85.7123 14.5208 85.379 15.3125C85.054 16.1042 84.5915 16.8042 83.9915 17.4125C83.3915 18.0208 82.6831 18.5 81.8665 18.85C81.0498 19.2 80.1498 19.375 79.1665 19.375ZM79.1665 16.9375C79.9331 16.9375 80.6123 16.7708 81.204 16.4375C81.804 16.0958 82.2748 15.6167 82.6165 15C82.9581 14.3833 83.129 13.6542 83.129 12.8125C83.129 11.9708 82.9581 11.2417 82.6165 10.625C82.2748 10 81.804 9.52083 81.204 9.1875C80.6123 8.85417 79.9331 8.6875 79.1665 8.6875C78.3998 8.6875 77.7165 8.85417 77.1165 9.1875C76.5248 9.52083 76.0581 10 75.7165 10.625C75.3831 11.2417 75.2165 11.9708 75.2165 12.8125C75.2165 13.6542 75.3873 14.3833 75.729 15C76.0706 15.6167 76.5373 16.0958 77.129 16.4375C77.729 16.7708 78.4081 16.9375 79.1665 16.9375ZM94.1067 19L90.2192 6.625H92.9567L95.6067 15.825L98.5067 6.625H101.194L103.907 15.825L106.607 6.625H109.219L105.332 19H102.494L99.7692 10.1125L96.9442 19H94.1067ZM120.274 19.375C118.94 19.375 117.77 19.1042 116.761 18.5625C115.753 18.0125 114.965 17.2458 114.399 16.2625C113.84 15.2792 113.561 14.1375 113.561 12.8375C113.561 11.8875 113.724 11.0125 114.049 10.2125C114.374 9.40417 114.832 8.70417 115.424 8.1125C116.015 7.52083 116.707 7.0625 117.499 6.7375C118.299 6.4125 119.17 6.25 120.111 6.25C121.136 6.25 122.049 6.43333 122.849 6.8C123.649 7.15833 124.311 7.6625 124.836 8.3125C125.37 8.9625 125.745 9.725 125.961 10.6C126.186 11.4667 126.224 12.4083 126.074 13.425H116.199C116.182 14.1667 116.345 14.8167 116.686 15.375C117.028 15.925 117.515 16.3542 118.149 16.6625C118.79 16.9708 119.545 17.125 120.411 17.125C121.111 17.125 121.786 17.0208 122.436 16.8125C123.095 16.5958 123.69 16.2792 124.224 15.8625L125.286 17.8375C124.886 18.1625 124.403 18.4417 123.836 18.675C123.27 18.9 122.678 19.0708 122.061 19.1875C121.445 19.3125 120.849 19.375 120.274 19.375ZM116.361 11.4H123.374C123.349 10.4667 123.049 9.73333 122.474 9.2C121.907 8.66667 121.099 8.4 120.049 8.4C119.032 8.4 118.186 8.66667 117.511 9.2C116.845 9.73333 116.461 10.4667 116.361 11.4ZM132.18 19V6.625H134.93V8.3375C135.397 7.5625 135.964 7.02083 136.63 6.7125C137.297 6.39583 138.014 6.2375 138.78 6.2375C139.03 6.2375 139.268 6.25 139.493 6.275C139.718 6.3 139.934 6.3375 140.143 6.3875L139.78 9.225C139.53 9.15 139.276 9.09167 139.018 9.05C138.759 9.00833 138.501 8.9875 138.243 8.9875C137.284 8.9875 136.493 9.28333 135.868 9.875C135.243 10.4583 134.93 11.2542 134.93 12.2625V19H132.18Z" fill="#E8EAF0" fill-opacity="0.9"/>
<path d="M145.909 19V1.5H157.197V4.875H149.609V8.975H156.422V12.225H149.609V19H145.909ZM163.567 19V0.999999H167.217V19H163.567ZM179.957 19.375C178.599 19.375 177.394 19.0708 176.344 18.4625C175.294 17.8542 174.469 17.0458 173.869 16.0375C173.278 15.0208 172.982 13.9042 172.982 12.6875C172.982 11.7958 173.153 10.95 173.494 10.15C173.836 9.34167 174.319 8.62917 174.944 8.0125C175.569 7.3875 176.307 6.89583 177.157 6.5375C178.007 6.17917 178.94 6 179.957 6C181.315 6 182.515 6.30417 183.557 6.9125C184.607 7.52083 185.428 8.33333 186.019 9.35C186.619 10.3583 186.919 11.4708 186.919 12.6875C186.919 13.5708 186.749 14.4167 186.407 15.225C186.065 16.0333 185.582 16.75 184.957 17.375C184.34 17.9917 183.607 18.4792 182.757 18.8375C181.907 19.1958 180.974 19.375 179.957 19.375ZM179.957 16.2125C180.599 16.2125 181.174 16.0708 181.682 15.7875C182.19 15.4958 182.59 15.0875 182.882 14.5625C183.174 14.0292 183.319 13.4042 183.319 12.6875C183.319 11.9625 183.174 11.3375 182.882 10.8125C182.599 10.2875 182.203 9.88333 181.694 9.6C181.186 9.30833 180.607 9.1625 179.957 9.1625C179.307 9.1625 178.724 9.30833 178.207 9.6C177.699 9.88333 177.299 10.2875 177.007 10.8125C176.724 11.3375 176.582 11.9625 176.582 12.6875C176.582 13.4125 176.728 14.0375 177.019 14.5625C177.311 15.0875 177.711 15.4958 178.219 15.7875C178.728 16.0708 179.307 16.2125 179.957 16.2125ZM194.865 19L191.028 6.375H194.59L196.84 14.8L199.39 6.375H202.803L205.24 14.8L207.49 6.375H210.903L207.065 19H203.403L201.028 10.875L198.528 19H194.865Z" fill="#60A5FA"/>
</svg>
